<svg width="16" height="16" viewBox="0 0 16 16" fill="none" xmlns="http://www.w3.org/2000/svg">
<path d="M12.8835 6.3125C12.8835 6.3125 12.5215 10.8025 12.3115 12.6938C12.2115 13.5972 11.6535 14.1265 10.7395 14.1432C9.00019 14.1745 7.25885 14.1765 5.52018 14.1398C4.64085 14.1218 4.09218 13.5858 3.99418 12.6985C3.78285 10.7905 3.42285 6.3125 3.42285 6.3125" stroke="#130F26" stroke-width="1.5" stroke-linecap="round" stroke-linejoin="round"/>
<path d="M13.8053 4.15951H2.5" stroke="#130F26" stroke-width="1.5" stroke-linecap="round" stroke-linejoin="round"/>
<path d="M11.6274 4.15998C11.104 4.15998 10.6534 3.78998 10.5507 3.27732L10.3887 2.46665C10.2887 2.09265 9.95004 1.83398 9.56404 1.83398H6.74204C6.35604 1.83398 6.01738 2.09265 5.91738 2.46665L5.75538 3.27732C5.65271 3.78998 5.20204 4.15998 4.67871 4.15998" stroke="#130F26" stroke-width="1.5" stroke-linecap="round" stroke-linejoin="round"/>
</svg>
