<svg width="20" height="20" viewBox="0 0 20 20" fill="none" xmlns="http://www.w3.org/2000/svg">
<g clip-path="url(#clip0_3023_12740)">
<path d="M18.8751 11.991L10.0001 18.441L1.12512 11.991C1.00614 11.9035 0.917886 11.7806 0.872982 11.6399C0.828079 11.4992 0.828827 11.3479 0.87512 11.2077L1.89179 8.05769L3.92512 1.79936C3.94484 1.74836 3.97624 1.7027 4.01679 1.66602C4.08282 1.60571 4.16902 1.57227 4.25845 1.57227C4.34789 1.57227 4.43409 1.60571 4.50012 1.66602C4.54294 1.70741 4.57449 1.75904 4.59179 1.81602L6.62512 8.05769H13.3751L15.4085 1.79936C15.4282 1.74836 15.4596 1.7027 15.5001 1.66602C15.5662 1.60571 15.6524 1.57227 15.7418 1.57227C15.8312 1.57227 15.9174 1.60571 15.9835 1.66602C16.0263 1.70741 16.0578 1.75904 16.0751 1.81602L18.1085 8.07436L19.1668 11.2077C19.2089 11.3523 19.2033 11.5066 19.1507 11.6477C19.0982 11.7888 19.0015 11.9092 18.8751 11.991V11.991Z" stroke="#006493" stroke-width="2" stroke-linecap="round" stroke-linejoin="round"/>
</g>
<defs>
<clipPath id="clip0_3023_12740">
<rect width="20" height="20" fill="white"/>
</clipPath>
</defs>
</svg>
