<svg width="20" height="20" viewBox="0 0 20 20" fill="none" xmlns="http://www.w3.org/2000/svg">
<path d="M17.5 9.16602H14.5L12.25 11.666L7.75 6.66602L5.5 9.16602H2.5" stroke="#006493" stroke-width="2" stroke-linecap="round" stroke-linejoin="round"/>
<path d="M17.0485 3.82611C16.6413 3.40569 16.1577 3.07219 15.6256 2.84465C15.0934 2.61711 14.523 2.5 13.9469 2.5C13.3708 2.5 12.8004 2.61711 12.2682 2.84465C11.736 3.07219 11.2525 3.40569 10.8453 3.82611L10.0001 4.69821L9.15494 3.82611C8.33235 2.9773 7.21666 2.50044 6.05333 2.50044C4.89 2.50044 3.77432 2.9773 2.95172 3.82611C2.12912 4.67492 1.66699 5.82616 1.66699 7.02656C1.66699 8.22696 2.12912 9.37819 2.95172 10.227L3.79689 11.0991L10.0001 17.5L16.2033 11.0991L17.0485 10.227C17.4559 9.80679 17.7791 9.30785 17.9997 8.75871C18.2202 8.20957 18.3337 7.62097 18.3337 7.02656C18.3337 6.43214 18.2202 5.84355 17.9997 5.2944C17.7791 4.74526 17.4559 4.24633 17.0485 3.82611V3.82611Z" stroke="#006493" stroke-width="2" stroke-linecap="round" stroke-linejoin="round"/>
</svg>
