<svg width="40" height="40" viewBox="0 0 40 40" fill="none" xmlns="http://www.w3.org/2000/svg">
<path d="M15.2399 34.6375V29.5261C15.2399 28.2308 16.2931 27.1785 17.5977 27.1704H22.388C23.6985 27.1704 24.7608 28.225 24.7608 29.5261V34.6227C24.7607 35.7461 25.6737 36.6591 26.8052 36.6673H30.0734C31.5997 36.6712 33.0649 36.072 34.1456 35.0018C35.2263 33.9317 35.8337 32.4786 35.8337 30.9632V16.4437C35.8336 15.2196 35.2871 14.0585 34.3414 13.2732L23.2386 4.45776C21.2978 2.91586 18.5259 2.96566 16.6426 4.57629L5.77868 13.2732C4.78823 14.0354 4.19625 15.1999 4.16699 16.4437V30.9484C4.16699 34.1068 6.74596 36.6673 9.92728 36.6673H13.1208C13.6656 36.6712 14.1895 36.4591 14.5761 36.078C14.9628 35.6969 15.1802 35.1784 15.1802 34.6375H15.2399Z" fill="#006493"/>
</svg>
