<svg width="35" height="35" viewBox="0 0 35 35" fill="none" xmlns="http://www.w3.org/2000/svg">
<path opacity="0.4" d="M32.0827 17.4993C32.0827 25.5552 25.5537 32.0827 17.4993 32.0827C9.44497 32.0827 2.91602 25.5552 2.91602 17.4993C2.91602 9.44643 9.44497 2.91602 17.4993 2.91602C25.5537 2.91602 32.0827 9.44643 32.0827 17.4993Z" fill="#247B9F"/>
<path fill-rule="evenodd" clip-rule="evenodd" d="M18.7689 18.4191C18.7689 19.1221 18.1958 19.6952 17.4928 19.6952C16.7899 19.6952 16.2168 19.1221 16.2168 18.4191V11.9733C16.2168 11.2704 16.7899 10.6973 17.4928 10.6973C18.1958 10.6973 18.7689 11.2704 18.7689 11.9733V18.4191ZM16.2241 23.0461C16.2241 22.3432 16.7943 21.7701 17.4928 21.7701C18.2118 21.7701 18.7835 22.3432 18.7835 23.0461C18.7835 23.7491 18.2118 24.3222 17.5074 24.3222C16.8001 24.3222 16.2241 23.7491 16.2241 23.0461Z" fill="#1B97DF"/>
</svg>
