<svg width="24" height="24" viewBox="0 0 24 24" fill="none" xmlns="http://www.w3.org/2000/svg">
<g clip-path="url(#clip0_2295_20223)">
<mask id="path-1-inside-1_2295_20223" fill="white">
<path d="M11.9942 0L11.4001 0.29456L2.96215 4.43494C2.7732 4.51289 2.58348 4.59198 2.39454 4.66993C2.33608 4.90801 2.27924 5.14673 2.22078 5.38482L0.135696 14.6999C0.0907906 14.9074 0.0449054 15.1145 0 15.3221C0.132175 15.5068 0.264985 15.6917 0.397159 15.8764L6.23705 23.3497C6.3794 23.5225 6.52166 23.6948 6.664 23.8676C6.88006 23.8702 7.09498 23.8733 7.31104 23.8759H16.6757C16.8952 23.8733 17.1149 23.8702 17.3343 23.8676C17.4733 23.6948 17.6124 23.5225 17.7514 23.3497L23.5896 15.8764C23.726 15.7036 23.8627 15.5313 24 15.3585C23.9509 15.1382 23.9019 14.9185 23.8527 14.6999L21.7676 5.38482C21.7236 5.16622 21.6793 4.94645 21.6352 4.72785L21.0246 4.4366L12.5899 0.29456L11.9942 0ZM11.9909 3.04654C12.2218 3.04595 12.4418 3.18184 12.5403 3.4106C12.6055 3.57159 12.6005 3.74316 12.5403 3.8872C12.4149 4.18713 12.3706 4.48834 12.3384 4.78742C12.3274 4.94247 12.3234 5.09253 12.3285 5.2425C12.3124 5.39247 12.388 5.54099 12.4973 5.69096C12.6117 5.84093 12.6235 5.99111 12.6396 6.14107C14.1782 6.29104 15.5642 6.98596 16.6013 8.04082C16.7267 7.95779 16.8475 7.86803 17.0381 7.8621C17.2186 7.85108 17.3816 7.81919 17.4849 7.7082C17.5993 7.61415 17.7083 7.51293 17.8176 7.40702C18.0251 7.19605 18.2262 6.96862 18.3736 6.68055C18.521 6.38061 18.8823 6.26403 19.1712 6.41909C19.4661 6.56905 19.5802 6.9351 19.4277 7.22995C19.3514 7.385 19.2195 7.49204 19.067 7.5361C18.7611 7.62506 18.5051 7.78539 18.2594 7.95146C18.1391 8.04042 18.0195 8.12949 17.9102 8.22947C17.7848 8.3125 17.7194 8.46775 17.6703 8.64483C17.6321 8.83377 17.5296 8.93927 17.4254 9.05027C18.1345 10.1102 18.544 11.3935 18.544 12.7703C18.544 12.9813 18.532 13.1925 18.5159 13.3975H18.5225C18.664 13.4416 18.8059 13.4792 18.9313 13.6292C19.0567 13.7622 19.1876 13.8631 19.335 13.8741C19.4825 13.9071 19.6245 13.9292 19.7719 13.9453C20.0718 13.9732 20.3668 13.9842 20.6837 13.9122C21.0057 13.8401 21.3217 14.046 21.392 14.3739C21.4615 14.6941 21.2589 15.0167 20.9369 15.0887C20.7734 15.1277 20.6098 15.0874 20.4785 15.0043C20.2108 14.8213 19.9275 14.7217 19.6445 14.6386C19.503 14.5997 19.3549 14.5663 19.2126 14.5443C19.0711 14.5002 18.9078 14.5441 18.7443 14.6221C18.5807 14.7161 18.4334 14.7009 18.2809 14.6899H18.2644C17.795 16.2718 16.764 17.6098 15.3998 18.4596V18.4646C15.4439 18.6086 15.4927 18.7489 15.4495 18.9379C15.4114 19.1209 15.4038 19.2864 15.4809 19.4194C15.5411 19.5525 15.6067 19.692 15.6779 19.8199C15.8253 20.0809 15.9899 20.3419 16.2306 20.558C16.4704 20.7859 16.4872 21.1636 16.2686 21.4135C16.045 21.6575 15.6737 21.6735 15.428 21.4516C15.3026 21.3346 15.2377 21.1806 15.2377 21.0196C15.2267 20.6918 15.144 20.4034 15.0457 20.1145C14.9966 19.9755 14.943 19.8355 14.8769 19.6974C14.8278 19.5534 14.6969 19.4548 14.5393 19.3599C14.3868 19.2768 14.3103 19.1585 14.2332 19.0305C13.535 19.2915 12.7821 19.431 11.9959 19.431C11.2206 19.431 10.4771 19.2921 9.78997 19.0421C9.72473 19.1641 9.64877 19.2752 9.49541 19.3582C9.33698 19.4472 9.20697 19.5526 9.15783 19.6974C9.09259 19.8305 9.03156 19.9689 8.98242 20.1078C8.88413 20.3968 8.7972 20.6851 8.79211 21.013C8.7811 21.346 8.50276 21.6065 8.17486 21.5955C7.84781 21.5845 7.59127 21.3063 7.60229 20.9733C7.60737 20.8013 7.68483 20.6514 7.79921 20.5464C8.03899 20.3244 8.20438 20.0683 8.35689 19.8133C8.42806 19.6803 8.49201 19.5476 8.55216 19.4095C8.62842 19.2816 8.62327 19.1093 8.59022 18.9263C8.5521 18.7543 8.59085 18.6157 8.6349 18.4878C7.26486 17.6498 6.2177 16.3165 5.7373 14.7346C5.6119 14.7456 5.49156 14.7454 5.35007 14.6734C5.18061 14.6014 5.02244 14.5572 4.88009 14.6072C4.73267 14.6351 4.59218 14.674 4.44984 14.7181C4.166 14.8121 3.88839 14.918 3.62573 15.1069C3.35799 15.301 2.98564 15.2349 2.79501 14.963C2.60946 14.691 2.67043 14.3121 2.93732 14.124C3.07373 14.024 3.2432 13.9918 3.39571 14.0197C3.70666 14.0867 4.00605 14.0628 4.3009 14.0247C4.44833 14.0077 4.59628 13.9809 4.73778 13.9419C4.8852 13.9309 5.01463 13.8211 5.13494 13.6821C5.23831 13.5601 5.35883 13.5103 5.47914 13.4654C5.45711 13.2374 5.44605 13.0033 5.44605 12.7703C5.44605 11.3494 5.88276 10.0338 6.6309 8.95098C6.53262 8.851 6.44066 8.7516 6.40254 8.57367C6.3534 8.39575 6.28798 8.23969 6.16259 8.15666C6.04821 8.05668 5.93373 7.9683 5.81342 7.88526C5.56263 7.71835 5.30676 7.56395 5.0009 7.4699C4.68402 7.38094 4.4973 7.04126 4.5905 6.72523C4.68285 6.40326 5.01167 6.2209 5.32855 6.30987C5.48699 6.35986 5.61648 6.47044 5.68765 6.60939C5.83508 6.89831 6.03763 7.12489 6.25029 7.33586C6.35366 7.44092 6.46853 7.54146 6.58291 7.63042C6.68628 7.74141 6.8501 7.77496 7.02972 7.78597C7.22035 7.79191 7.3412 7.87504 7.46659 7.95808L7.47156 7.96304C8.49761 6.95309 9.84996 6.28677 11.3505 6.14273C11.3666 5.99276 11.3784 5.84258 11.4928 5.69262C11.6021 5.54265 11.6777 5.39247 11.6616 5.2425C11.6667 5.09253 11.6627 4.94247 11.6517 4.78742C11.6186 4.48749 11.5752 4.18794 11.4498 3.88885C11.3184 3.58383 11.4609 3.22755 11.7609 3.09453C11.8359 3.06255 11.9139 3.04674 11.9909 3.04654ZM11.2082 7.27629C10.155 7.42625 9.20056 7.88843 8.43632 8.5654L8.60512 8.66965C9.11263 8.99162 9.60389 9.33111 10.0945 9.66917C10.3783 9.85218 10.6467 10.0576 10.9136 10.2517C10.9356 9.93649 10.9616 9.61537 10.9947 9.29849C11.0489 8.69862 11.1054 8.09209 11.1817 7.49307L11.2082 7.27629ZM12.7803 7.27629V7.27794H12.7786L12.8067 7.49307V7.49472C12.883 8.09459 12.9378 8.69947 12.9921 9.29849C13.0141 9.53742 13.0347 9.77114 13.0516 10.0101C13.0518 10.0125 13.0531 10.0142 13.0533 10.0167C13.0607 10.1224 13.0674 10.2287 13.0748 10.3344C13.1502 10.3064 13.2648 10.2568 13.3942 10.1888C13.4 10.1853 13.4067 10.1863 13.4124 10.1822C13.4221 10.1749 13.4325 10.1679 13.4422 10.1607C13.7351 9.99537 13.9231 9.81326 13.985 9.77011C14.4758 9.43164 14.9618 9.09313 15.4627 8.76563L15.4644 8.76398L15.6497 8.64814C15.4546 8.46788 15.2458 8.30183 15.0259 8.15169C14.8059 8.00155 14.5739 7.86778 14.3325 7.75122C14.0911 7.63467 13.8407 7.53451 13.5812 7.45501C13.3217 7.37551 13.0543 7.31526 12.7803 7.27629ZM7.39875 9.77674C7.26265 9.99157 7.13926 10.2161 7.03303 10.4503V10.4519C6.92686 10.6861 6.83686 10.9293 6.76329 11.18V11.1817C6.68958 11.4329 6.63273 11.6911 6.5945 11.9561C6.55626 12.2212 6.53658 12.4925 6.53658 12.7687C6.53658 12.8737 6.54154 12.9732 6.54154 13.0732V13.0748L6.79804 12.9855C7.35978 12.7804 7.92669 12.6018 8.48928 12.4129C8.75871 12.3265 9.02667 12.2435 9.29187 12.163C9.39354 12.1156 9.49634 12.0698 9.59801 12.0223C9.52515 11.9393 9.45244 11.8563 9.37958 11.7741C9.19402 11.6021 9.0131 11.4292 8.83348 11.2462C8.40815 10.8184 7.98767 10.3977 7.5725 9.95877L7.39875 9.77674ZM16.6542 9.88099L16.5831 9.95711L16.5053 10.0415C16.096 10.4855 15.6761 10.9135 15.2559 11.3405C14.9881 11.6185 14.6997 11.8844 14.4218 12.1564C14.7929 12.2504 15.1644 12.3499 15.5355 12.4609C16.1083 12.6278 16.6757 12.7891 17.2433 12.9772L17.4452 13.045C17.4503 12.9561 17.4502 12.8619 17.4502 12.767C17.4504 12.5022 17.4322 12.2406 17.3972 11.9859C17.2922 11.2219 17.0344 10.5091 16.6542 9.88099ZM12.3616 11.6318L11.367 11.6417L10.7564 12.4261L10.9881 13.3942L11.89 13.8145L12.7803 13.3727L12.9904 12.3996L12.3616 11.6318ZM10.0051 14.2928C9.93308 14.2936 9.82213 14.2959 9.68572 14.3043C9.429 14.3374 9.17791 14.3773 8.92119 14.4053C8.3264 14.4773 7.742 14.5496 7.14721 14.6055L6.85265 14.6337C6.95221 14.9169 7.07501 15.1894 7.21671 15.4495C7.35842 15.7096 7.51886 15.9567 7.69827 16.1892C7.87768 16.4217 8.07472 16.6392 8.28739 16.8396C8.50005 17.0399 8.72936 17.2236 8.97083 17.3873L9.04696 17.154C9.23251 16.577 9.42946 16.0098 9.63111 15.4379C9.72431 15.16 9.82146 14.8876 9.92567 14.6105C9.96295 14.4775 9.98816 14.3665 10.0051 14.2928ZM14.028 14.3374C14.0593 14.4154 14.1086 14.5383 14.1653 14.6883C14.2585 14.9382 14.3462 15.1878 14.4334 15.4429C14.6241 16.0089 14.8206 16.5811 15.001 17.1589L15.0606 17.3592C15.2981 17.1939 15.5222 17.0097 15.7308 16.8098C15.9395 16.6098 16.1328 16.3934 16.3083 16.1627C16.4839 15.932 16.6417 15.6871 16.78 15.4296C16.9183 15.1722 17.0373 14.9023 17.1341 14.6221L16.9438 14.6105C16.349 14.5715 15.758 14.5175 15.1632 14.4616C14.9065 14.4395 14.6571 14.4117 14.4003 14.3838C14.2436 14.366 14.1144 14.3485 14.028 14.3374ZM12.0008 15.2294C11.9576 15.3133 11.9149 15.4042 11.8751 15.5008C11.862 15.5327 11.8502 15.564 11.8387 15.5951C11.8378 15.5966 11.8362 15.5969 11.8353 15.5984C11.7099 15.8374 11.5796 16.0705 11.4431 16.2984C11.1432 16.8203 10.8433 17.3431 10.5264 17.854L10.389 18.0757H10.3907C10.644 18.156 10.9074 18.2169 11.1751 18.2577C11.4427 18.2985 11.7181 18.3189 11.9959 18.319C12.2817 18.3189 12.5631 18.2964 12.8382 18.2528H12.8398C13.1148 18.209 13.3837 18.145 13.6424 18.0592L13.5167 17.8473C13.1998 17.3364 12.9047 16.8088 12.6098 16.2868C12.4785 16.0589 12.3536 15.8314 12.2342 15.5984C12.1562 15.4747 12.0788 15.3531 12.0008 15.2294Z"/>
</mask>
<path d="M11.9942 0L11.4001 0.29456L2.96215 4.43494C2.7732 4.51289 2.58348 4.59198 2.39454 4.66993C2.33608 4.90801 2.27924 5.14673 2.22078 5.38482L0.135696 14.6999C0.0907906 14.9074 0.0449054 15.1145 0 15.3221C0.132175 15.5068 0.264985 15.6917 0.397159 15.8764L6.23705 23.3497C6.3794 23.5225 6.52166 23.6948 6.664 23.8676C6.88006 23.8702 7.09498 23.8733 7.31104 23.8759H16.6757C16.8952 23.8733 17.1149 23.8702 17.3343 23.8676C17.4733 23.6948 17.6124 23.5225 17.7514 23.3497L23.5896 15.8764C23.726 15.7036 23.8627 15.5313 24 15.3585C23.9509 15.1382 23.9019 14.9185 23.8527 14.6999L21.7676 5.38482C21.7236 5.16622 21.6793 4.94645 21.6352 4.72785L21.0246 4.4366L12.5899 0.29456L11.9942 0ZM11.9909 3.04654C12.2218 3.04595 12.4418 3.18184 12.5403 3.4106C12.6055 3.57159 12.6005 3.74316 12.5403 3.8872C12.4149 4.18713 12.3706 4.48834 12.3384 4.78742C12.3274 4.94247 12.3234 5.09253 12.3285 5.2425C12.3124 5.39247 12.388 5.54099 12.4973 5.69096C12.6117 5.84093 12.6235 5.99111 12.6396 6.14107C14.1782 6.29104 15.5642 6.98596 16.6013 8.04082C16.7267 7.95779 16.8475 7.86803 17.0381 7.8621C17.2186 7.85108 17.3816 7.81919 17.4849 7.7082C17.5993 7.61415 17.7083 7.51293 17.8176 7.40702C18.0251 7.19605 18.2262 6.96862 18.3736 6.68055C18.521 6.38061 18.8823 6.26403 19.1712 6.41909C19.4661 6.56905 19.5802 6.9351 19.4277 7.22995C19.3514 7.385 19.2195 7.49204 19.067 7.5361C18.7611 7.62506 18.5051 7.78539 18.2594 7.95146C18.1391 8.04042 18.0195 8.12949 17.9102 8.22947C17.7848 8.3125 17.7194 8.46775 17.6703 8.64483C17.6321 8.83377 17.5296 8.93927 17.4254 9.05027C18.1345 10.1102 18.544 11.3935 18.544 12.7703C18.544 12.9813 18.532 13.1925 18.5159 13.3975H18.5225C18.664 13.4416 18.8059 13.4792 18.9313 13.6292C19.0567 13.7622 19.1876 13.8631 19.335 13.8741C19.4825 13.9071 19.6245 13.9292 19.7719 13.9453C20.0718 13.9732 20.3668 13.9842 20.6837 13.9122C21.0057 13.8401 21.3217 14.046 21.392 14.3739C21.4615 14.6941 21.2589 15.0167 20.9369 15.0887C20.7734 15.1277 20.6098 15.0874 20.4785 15.0043C20.2108 14.8213 19.9275 14.7217 19.6445 14.6386C19.503 14.5997 19.3549 14.5663 19.2126 14.5443C19.0711 14.5002 18.9078 14.5441 18.7443 14.6221C18.5807 14.7161 18.4334 14.7009 18.2809 14.6899H18.2644C17.795 16.2718 16.764 17.6098 15.3998 18.4596V18.4646C15.4439 18.6086 15.4927 18.7489 15.4495 18.9379C15.4114 19.1209 15.4038 19.2864 15.4809 19.4194C15.5411 19.5525 15.6067 19.692 15.6779 19.8199C15.8253 20.0809 15.9899 20.3419 16.2306 20.558C16.4704 20.7859 16.4872 21.1636 16.2686 21.4135C16.045 21.6575 15.6737 21.6735 15.428 21.4516C15.3026 21.3346 15.2377 21.1806 15.2377 21.0196C15.2267 20.6918 15.144 20.4034 15.0457 20.1145C14.9966 19.9755 14.943 19.8355 14.8769 19.6974C14.8278 19.5534 14.6969 19.4548 14.5393 19.3599C14.3868 19.2768 14.3103 19.1585 14.2332 19.0305C13.535 19.2915 12.7821 19.431 11.9959 19.431C11.2206 19.431 10.4771 19.2921 9.78997 19.0421C9.72473 19.1641 9.64877 19.2752 9.49541 19.3582C9.33698 19.4472 9.20697 19.5526 9.15783 19.6974C9.09259 19.8305 9.03156 19.9689 8.98242 20.1078C8.88413 20.3968 8.7972 20.6851 8.79211 21.013C8.7811 21.346 8.50276 21.6065 8.17486 21.5955C7.84781 21.5845 7.59127 21.3063 7.60229 20.9733C7.60737 20.8013 7.68483 20.6514 7.79921 20.5464C8.03899 20.3244 8.20438 20.0683 8.35689 19.8133C8.42806 19.6803 8.49201 19.5476 8.55216 19.4095C8.62842 19.2816 8.62327 19.1093 8.59022 18.9263C8.5521 18.7543 8.59085 18.6157 8.6349 18.4878C7.26486 17.6498 6.2177 16.3165 5.7373 14.7346C5.6119 14.7456 5.49156 14.7454 5.35007 14.6734C5.18061 14.6014 5.02244 14.5572 4.88009 14.6072C4.73267 14.6351 4.59218 14.674 4.44984 14.7181C4.166 14.8121 3.88839 14.918 3.62573 15.1069C3.35799 15.301 2.98564 15.2349 2.79501 14.963C2.60946 14.691 2.67043 14.3121 2.93732 14.124C3.07373 14.024 3.2432 13.9918 3.39571 14.0197C3.70666 14.0867 4.00605 14.0628 4.3009 14.0247C4.44833 14.0077 4.59628 13.9809 4.73778 13.9419C4.8852 13.9309 5.01463 13.8211 5.13494 13.6821C5.23831 13.5601 5.35883 13.5103 5.47914 13.4654C5.45711 13.2374 5.44605 13.0033 5.44605 12.7703C5.44605 11.3494 5.88276 10.0338 6.6309 8.95098C6.53262 8.851 6.44066 8.7516 6.40254 8.57367C6.3534 8.39575 6.28798 8.23969 6.16259 8.15666C6.04821 8.05668 5.93373 7.9683 5.81342 7.88526C5.56263 7.71835 5.30676 7.56395 5.0009 7.4699C4.68402 7.38094 4.4973 7.04126 4.5905 6.72523C4.68285 6.40326 5.01167 6.2209 5.32855 6.30987C5.48699 6.35986 5.61648 6.47044 5.68765 6.60939C5.83508 6.89831 6.03763 7.12489 6.25029 7.33586C6.35366 7.44092 6.46853 7.54146 6.58291 7.63042C6.68628 7.74141 6.8501 7.77496 7.02972 7.78597C7.22035 7.79191 7.3412 7.87504 7.46659 7.95808L7.47156 7.96304C8.49761 6.95309 9.84996 6.28677 11.3505 6.14273C11.3666 5.99276 11.3784 5.84258 11.4928 5.69262C11.6021 5.54265 11.6777 5.39247 11.6616 5.2425C11.6667 5.09253 11.6627 4.94247 11.6517 4.78742C11.6186 4.48749 11.5752 4.18794 11.4498 3.88885C11.3184 3.58383 11.4609 3.22755 11.7609 3.09453C11.8359 3.06255 11.9139 3.04674 11.9909 3.04654ZM11.2082 7.27629C10.155 7.42625 9.20056 7.88843 8.43632 8.5654L8.60512 8.66965C9.11263 8.99162 9.60389 9.33111 10.0945 9.66917C10.3783 9.85218 10.6467 10.0576 10.9136 10.2517C10.9356 9.93649 10.9616 9.61537 10.9947 9.29849C11.0489 8.69862 11.1054 8.09209 11.1817 7.49307L11.2082 7.27629ZM12.7803 7.27629V7.27794H12.7786L12.8067 7.49307V7.49472C12.883 8.09459 12.9378 8.69947 12.9921 9.29849C13.0141 9.53742 13.0347 9.77114 13.0516 10.0101C13.0518 10.0125 13.0531 10.0142 13.0533 10.0167C13.0607 10.1224 13.0674 10.2287 13.0748 10.3344C13.1502 10.3064 13.2648 10.2568 13.3942 10.1888C13.4 10.1853 13.4067 10.1863 13.4124 10.1822C13.4221 10.1749 13.4325 10.1679 13.4422 10.1607C13.7351 9.99537 13.9231 9.81326 13.985 9.77011C14.4758 9.43164 14.9618 9.09313 15.4627 8.76563L15.4644 8.76398L15.6497 8.64814C15.4546 8.46788 15.2458 8.30183 15.0259 8.15169C14.8059 8.00155 14.5739 7.86778 14.3325 7.75122C14.0911 7.63467 13.8407 7.53451 13.5812 7.45501C13.3217 7.37551 13.0543 7.31526 12.7803 7.27629ZM7.39875 9.77674C7.26265 9.99157 7.13926 10.2161 7.03303 10.4503V10.4519C6.92686 10.6861 6.83686 10.9293 6.76329 11.18V11.1817C6.68958 11.4329 6.63273 11.6911 6.5945 11.9561C6.55626 12.2212 6.53658 12.4925 6.53658 12.7687C6.53658 12.8737 6.54154 12.9732 6.54154 13.0732V13.0748L6.79804 12.9855C7.35978 12.7804 7.92669 12.6018 8.48928 12.4129C8.75871 12.3265 9.02667 12.2435 9.29187 12.163C9.39354 12.1156 9.49634 12.0698 9.59801 12.0223C9.52515 11.9393 9.45244 11.8563 9.37958 11.7741C9.19402 11.6021 9.0131 11.4292 8.83348 11.2462C8.40815 10.8184 7.98767 10.3977 7.5725 9.95877L7.39875 9.77674ZM16.6542 9.88099L16.5831 9.95711L16.5053 10.0415C16.096 10.4855 15.6761 10.9135 15.2559 11.3405C14.9881 11.6185 14.6997 11.8844 14.4218 12.1564C14.7929 12.2504 15.1644 12.3499 15.5355 12.4609C16.1083 12.6278 16.6757 12.7891 17.2433 12.9772L17.4452 13.045C17.4503 12.9561 17.4502 12.8619 17.4502 12.767C17.4504 12.5022 17.4322 12.2406 17.3972 11.9859C17.2922 11.2219 17.0344 10.5091 16.6542 9.88099ZM12.3616 11.6318L11.367 11.6417L10.7564 12.4261L10.9881 13.3942L11.89 13.8145L12.7803 13.3727L12.9904 12.3996L12.3616 11.6318ZM10.0051 14.2928C9.93308 14.2936 9.82213 14.2959 9.68572 14.3043C9.429 14.3374 9.17791 14.3773 8.92119 14.4053C8.3264 14.4773 7.742 14.5496 7.14721 14.6055L6.85265 14.6337C6.95221 14.9169 7.07501 15.1894 7.21671 15.4495C7.35842 15.7096 7.51886 15.9567 7.69827 16.1892C7.87768 16.4217 8.07472 16.6392 8.28739 16.8396C8.50005 17.0399 8.72936 17.2236 8.97083 17.3873L9.04696 17.154C9.23251 16.577 9.42946 16.0098 9.63111 15.4379C9.72431 15.16 9.82146 14.8876 9.92567 14.6105C9.96295 14.4775 9.98816 14.3665 10.0051 14.2928ZM14.028 14.3374C14.0593 14.4154 14.1086 14.5383 14.1653 14.6883C14.2585 14.9382 14.3462 15.1878 14.4334 15.4429C14.6241 16.0089 14.8206 16.5811 15.001 17.1589L15.0606 17.3592C15.2981 17.1939 15.5222 17.0097 15.7308 16.8098C15.9395 16.6098 16.1328 16.3934 16.3083 16.1627C16.4839 15.932 16.6417 15.6871 16.78 15.4296C16.9183 15.1722 17.0373 14.9023 17.1341 14.6221L16.9438 14.6105C16.349 14.5715 15.758 14.5175 15.1632 14.4616C14.9065 14.4395 14.6571 14.4117 14.4003 14.3838C14.2436 14.366 14.1144 14.3485 14.028 14.3374ZM12.0008 15.2294C11.9576 15.3133 11.9149 15.4042 11.8751 15.5008C11.862 15.5327 11.8502 15.564 11.8387 15.5951C11.8378 15.5966 11.8362 15.5969 11.8353 15.5984C11.7099 15.8374 11.5796 16.0705 11.4431 16.2984C11.1432 16.8203 10.8433 17.3431 10.5264 17.854L10.389 18.0757H10.3907C10.644 18.156 10.9074 18.2169 11.1751 18.2577C11.4427 18.2985 11.7181 18.3189 11.9959 18.319C12.2817 18.3189 12.5631 18.2964 12.8382 18.2528H12.8398C13.1148 18.209 13.3837 18.145 13.6424 18.0592L13.5167 17.8473C13.1998 17.3364 12.9047 16.8088 12.6098 16.2868C12.4785 16.0589 12.3536 15.8314 12.2342 15.5984C12.1562 15.4747 12.0788 15.3531 12.0008 15.2294Z" fill="white" stroke="white" stroke-width="2" mask="url(#path-1-inside-1_2295_20223)"/>
</g>
<defs>
<clipPath id="clip0_2295_20223">
<rect width="24" height="23.8759" fill="white"/>
</clipPath>
</defs>
</svg>
