<svg width="36" height="35" viewBox="0 0 36 35" fill="none" xmlns="http://www.w3.org/2000/svg">
<path opacity="0.4" d="M27.4818 13.155C26.8221 13.155 25.9483 13.1404 24.8604 13.1404C22.2071 13.1404 20.0255 10.9485 20.0255 8.27539V3.58539C20.0255 3.21643 19.7289 2.91602 19.3643 2.91602H11.636C8.02937 2.91602 5.11426 5.8706 5.11426 9.49164V25.2052C5.11426 29.0041 8.16826 32.0827 11.9369 32.0827H23.444C27.0391 32.0827 29.9528 29.1471 29.9528 25.5231V13.8112C29.9528 13.4408 29.6577 13.1418 29.2902 13.1433C28.6739 13.1477 27.9317 13.155 27.4818 13.155Z" fill="#006493"/>
<path opacity="0.4" d="M23.5003 3.74237C23.0635 3.28883 22.3008 3.60091 22.3008 4.22946V8.07508C22.3008 9.688 23.6318 11.0151 25.2463 11.0151C26.2662 11.0267 27.6805 11.0297 28.8815 11.0267C29.4967 11.0253 29.8093 10.2917 29.3827 9.84841C27.8412 8.24862 25.0812 5.38154 23.5003 3.74237Z" fill="#247B9F"/>
<path d="M20.9923 17.8433H18.4676V15.3247C18.4676 14.7254 17.981 14.2383 17.3805 14.2383C16.78 14.2383 16.292 14.7254 16.292 15.3247V17.8433H13.7687C13.1682 17.8433 12.6816 18.3304 12.6816 18.9297C12.6816 19.5291 13.1682 20.0162 13.7687 20.0162H16.292V22.5333C16.292 23.1327 16.78 23.6197 17.3805 23.6197C17.981 23.6197 18.4676 23.1327 18.4676 22.5333V20.0162H20.9923C21.5928 20.0162 22.0808 19.5291 22.0808 18.9297C22.0808 18.3304 21.5928 17.8433 20.9923 17.8433Z" fill="#247B9F"/>
</svg>
